PathFileType	4	(X/Y/Z)
DataRate	CameraRate	NumFrames	NumMarkers	Units	OrigDataRate	OrigDataStartFrame	OrigNumFrames	
  120.0	  120.0	    5	     56	     mm	  120.0	      603	    688
Frame#	Time	LASI			RASI			LPSI			RPSI			RTH1			RTH2			RTH3			RLFC			RMFC			LTH1			LTH2			LTH3			LLFC			LMFC			RTB1			RTB2			RTB3			RLMAL			RMMAL			LTB1			LTB2			LTB3			LMMAL			LLMAL			RCAL			RTOE			RMT5			LCAL			LTOE			LMT5			LACR			RACR			CLAV			C7			LASH			LPSH			RASH			RPSH			RUA1			RUA2			RUA3			RLEL			RMEL			LUA1			LUA2			LUA3			LLEL			LMEL			RFAsuperior			RFAradius			RFAulna			LFAsuperior			LFAradius			LFAulna			RHJC			LHJC			
		X1	Y1	Z1	X2	Y2	Z2	X3	Y3	Z3	X4	Y4	Z4	X5	Y5	Z5	X6	Y6	Z6	X7	Y7	Z7	X8	Y8	Z8	X9	Y9	Z9	X10	Y10	Z10	X11	Y11	Z11	X12	Y12	Z12	X13	Y13	Z13	X14	Y14	Z14	X15	Y15	Z15	X16	Y16	Z16	X17	Y17	Z17	X18	Y18	Z18	X19	Y19	Z19	X20	Y20	Z20	X21	Y21	Z21	X22	Y22	Z22	X23	Y23	Z23	X24	Y24	Z24	X25	Y25	Z25	X26	Y26	Z26	X27	Y27	Z27	X28	Y28	Z28	X29	Y29	Z29	X30	Y30	Z30	X31	Y31	Z31	X32	Y32	Z32	X33	Y33	Z33	X34	Y34	Z34	X35	Y35	Z35	X36	Y36	Z36	X37	Y37	Z37	X38	Y38	Z38	X39	Y39	Z39	X40	Y40	Z40	X41	Y41	Z41	X42	Y42	Z42	X43	Y43	Z43	X44	Y44	Z44	X45	Y45	Z45	X46	Y46	Z46	X47	Y47	Z47	X48	Y48	Z48	X49	Y49	Z49	X50	Y50	Z50	X51	Y51	Z51	X52	Y52	Z52	X53	Y53	Z53	X54	Y54	Z54	X55	Y55	Z55	X56	Y56	Z56	

652	5.43333	619.05535	1017.95978	-665.54592	802.78316	1025.31520	-512.90563	561.66372	1043.42467	-494.13622	636.34506	1045.38954	-431.79114	813.95485	875.71241	-409.73008	848.44949	733.07282	-451.41891	802.44029	642.47391	-398.13292	828.49825	540.25213	-403.06096	727.43615	519.19700	-479.01128	503.51033	857.06702	-641.72807	542.11111	751.65490	-684.79446	490.99037	639.12318	-602.47976	487.59517	538.03335	-618.06236	590.36189	514.50100	-556.96894	820.35533	401.45817	-438.53319	831.77968	360.42815	-349.16600	817.25461	226.81405	-394.96157	809.05284	122.47218	-317.36978	754.67355	128.18074	-390.18315	523.20376	395.45535	-622.96514	446.19725	312.47047	-601.28870	500.51419	205.18347	-593.05538	523.37414	122.49058	-543.28040	434.22501	116.53259	-557.98217	726.64492	84.36591	-302.44271	859.20319	79.37590	-468.93579	926.13037	48.39660	-388.65083	452.12284	86.22753	-479.65827	556.43992	74.55120	-661.67210	454.78125	44.91816	-692.39253	481.18430	1515.97526	-563.68632	736.90494	1502.07577	-379.99741	691.30086	1464.12406	-544.91709	595.79712	1519.38478	-459.56618	541.21838	1493.04284	-613.52543	460.18589	1466.42618	-530.73552	773.27666	1477.47998	-446.94218	707.67834	1460.30826	-349.56954	799.75196	1469.88807	-337.68724	877.30318	1445.22126	-370.64667	873.97914	1397.42908	-300.30653	988.92388	1382.12003	-278.97604	973.85675	1329.05013	-311.59523	418.48745	1474.64501	-609.62079	403.12623	1399.64839	-626.86117	390.27065	1443.08311	-707.96633	312.30488	1381.71935	-776.26755	342.35550	1327.48819	-760.66823	1051.48767	1423.59445	-340.33001	1205.40748	1407.80130	-457.81647	1232.43286	1392.10112	-396.40145	347.96363	1414.22681	-844.61391	451.51041	1391.93010	-1022.12272	386.38689	1373.95570	-1040.30162	735.94629	968.32534	-488.25974	606.90741	956.69987	-594.49916	
653	5.44167	619.05033	1017.96276	-665.57310	802.78074	1025.31101	-512.92193	561.69730	1043.41964	-494.16752	636.35340	1045.38867	-431.81261	813.94763	875.73780	-409.71942	848.44786	733.07761	-451.42204	802.44151	642.48067	-398.11107	828.50161	540.24882	-403.06770	727.42952	519.18848	-479.02462	503.52957	857.06534	-641.74277	542.11687	751.63087	-684.74358	490.99524	639.12254	-602.47815	487.60133	538.04076	-618.06333	590.36038	514.50424	-556.97977	820.35541	401.45461	-438.50991	831.78692	360.43095	-349.16482	817.23274	226.79615	-394.87424	809.05381	122.47683	-317.36754	754.66909	128.19105	-390.16872	523.21721	395.46939	-623.00849	446.20738	312.47818	-601.30248	500.53279	205.20075	-593.10482	523.38066	122.48656	-543.29129	434.22508	116.52847	-557.98515	726.64731	84.40336	-302.37978	859.20762	79.37478	-468.93122	926.08606	48.48555	-388.60243	452.13641	86.23040	-479.65428	556.44234	74.56000	-661.68719	454.78429	44.92031	-692.39046	481.17067	1515.96935	-563.65755	736.88766	1502.06560	-380.00952	691.27885	1464.11977	-544.90508	595.80040	1519.37036	-459.51940	541.20797	1493.04759	-613.50600	460.19289	1466.41870	-530.72366	773.26435	1477.45812	-446.96189	707.66655	1460.29170	-349.55747	799.76566	1469.86253	-337.68804	877.29337	1445.20623	-370.63819	873.97328	1397.42409	-300.29233	988.91694	1382.09597	-278.98259	973.84494	1329.04116	-311.59186	418.48041	1474.63738	-609.62005	403.12585	1399.64330	-626.85797	390.25890	1443.08697	-707.95898	312.30562	1381.72180	-776.27823	342.35333	1327.49957	-760.66804	1051.48350	1423.57895	-340.31261	1205.43226	1407.71775	-457.39743	1232.43298	1392.08214	-396.38934	347.98370	1414.24636	-844.60885	451.45912	1392.01972	-1022.16333	386.33734	1373.99905	-1040.33608	735.95379	968.31979	-488.28992	606.90507	956.70205	-594.51906	
654	5.45000	619.02502	1017.96934	-665.60183	802.77263	1025.31182	-512.92065	561.72749	1043.41419	-494.19022	636.36625	1045.39045	-431.83241	813.94256	875.76213	-409.70363	848.44255	733.07857	-451.41801	802.43614	642.48570	-398.07625	828.50302	540.24708	-403.06964	727.39542	519.18301	-479.02526	503.52247	857.06527	-641.74193	542.08650	751.58631	-684.59471	490.96482	639.12948	-602.47499	487.58848	538.05118	-618.05668	590.36009	514.50903	-557.00120	820.33033	401.44367	-438.45505	831.79362	360.43039	-349.16426	817.18759	226.76743	-394.76638	809.05372	122.48683	-317.36500	754.64065	128.19875	-390.13216	523.20357	395.47717	-623.02097	446.20034	312.48285	-601.31007	500.52296	205.19912	-593.09442	523.36632	122.48637	-543.29998	434.21850	116.53106	-557.97737	726.65580	84.49095	-302.30033	859.20112	79.37207	-468.92471	926.05408	48.53780	-388.57278	452.14744	86.23466	-479.64758	556.43377	74.57329	-661.68999	454.76218	44.92293	-692.37280	481.14217	1515.97461	-563.63401	736.87402	1502.06076	-379.99857	691.24183	1464.12407	-544.88249	595.80232	1519.34936	-459.47671	541.17116	1493.05850	-613.45829	460.20335	1466.41886	-530.72618	773.24196	1477.45023	-446.95984	707.65606	1460.27634	-349.55103	799.75879	1469.84169	-337.69446	877.27888	1445.19394	-370.61581	873.95390	1397.41587	-300.28666	988.90867	1382.06958	-278.99159	973.83497	1329.03363	-311.59029	418.45402	1474.64569	-609.61485	403.11854	1399.64499	-626.86180	390.23873	1443.10413	-707.94044	312.29868	1381.72221	-776.28757	342.35968	1327.50736	-760.67275	1051.47281	1423.56363	-340.29741	1205.44918	1407.65560	-457.01138	1232.43733	1392.06950	-396.36935	347.97606	1414.27814	-844.59554	451.34711	1392.09881	-1022.14364	386.24923	1374.06187	-1040.35357	735.95582	968.31673	-488.31663	606.89195	956.70781	-594.52966	
655	5.45833	618.98715	1017.97734	-665.62597	802.75774	1025.31761	-512.90993	561.73763	1043.40918	-494.19995	636.37574	1045.39110	-431.85035	813.93951	875.77781	-409.69137	848.43369	733.07475	-451.40992	802.42701	642.49032	-398.03464	828.50112	540.24691	-403.07003	727.34167	519.18258	-479.00623	503.48207	857.06766	-641.72563	542.03013	751.55069	-684.44981	490.89552	639.14346	-602.47650	487.55401	538.06144	-618.04603	590.36345	514.51425	-557.03208	820.27904	401.42598	-438.37548	831.79336	360.42699	-349.16903	817.13244	226.73640	-394.67328	809.05263	122.49604	-317.36306	754.59645	128.20138	-390.08303	523.14738	395.46062	-622.93899	446.16851	312.48440	-601.31133	500.47472	205.17084	-593.00660	523.33356	122.49129	-543.30066	434.20411	116.53952	-557.96268	726.66607	84.57725	-302.24392	859.18376	79.37293	-468.91231	926.03116	48.55643	-388.54982	452.15103	86.23882	-479.63940	556.41408	74.58355	-661.67942	454.71856	44.92638	-692.34779	481.10455	1515.98647	-563.61882	736.86090	1502.05404	-379.95259	691.19359	1464.13271	-544.85309	595.79482	1519.32755	-459.45122	541.10693	1493.07182	-613.38292	460.20698	1466.42223	-530.73659	773.21132	1477.45207	-446.93749	707.64940	1460.25909	-349.54817	799.72486	1469.83068	-337.69203	877.26005	1445.18401	-370.58387	873.92572	1397.39584	-300.29902	988.89816	1382.03917	-279.00877	973.82696	1329.02130	-311.59633	418.40834	1474.66251	-609.59707	403.10444	1399.65169	-626.86358	390.20795	1443.12720	-707.91600	312.27976	1381.72138	-776.29229	342.37120	1327.50707	-760.68212	1051.45640	1423.54360	-340.29208	1205.44132	1407.63412	-456.84496	1232.43948	1392.05876	-396.34101	347.93707	1414.30741	-844.58125	451.23791	1392.15271	-1022.08422	386.17746	1374.11828	-1040.33819	735.94869	968.31686	-488.33629	606.87057	956.71428	-594.53399	
656	5.46667	618.94818	1017.98549	-665.64296	802.73914	1025.32542	-512.89944	561.73654	1043.39862	-494.20968	636.37757	1045.38948	-431.86396	813.93782	875.77899	-409.68969	848.42445	733.06758	-451.40329	802.42013	642.49603	-398.00454	828.49719	540.24737	-403.07021	727.27949	519.18504	-478.96475	503.41772	857.07200	-641.70223	541.96812	751.55160	-684.41063	490.80593	639.15971	-602.48447	487.50257	538.07048	-618.03679	590.37096	514.51810	-557.06782	820.21103	401.40464	-438.29032	831.78537	360.42271	-349.17566	817.08181	226.71396	-394.62498	809.05214	122.49866	-317.36105	754.55137	128.20052	-390.03936	523.04371	395.40586	-622.72237	446.11389	312.48554	-601.30911	500.39846	205.12388	-592.87644	523.29264	122.49912	-543.29416	434.18405	116.55012	-557.94850	726.66571	84.60876	-302.22721	859.15911	79.38016	-468.89203	926.00471	48.56126	-388.52481	452.14662	86.24154	-479.63221	556.38742	74.58805	-661.66098	454.66272	44.93051	-692.32202	481.06613	1515.99890	-563.60870	736.84391	1502.03981	-379.88128	691.14075	1464.14270	-544.82065	595.77719	1519.30998	-459.44106	541.02646	1493.08654	-613.29262	460.19655	1466.42442	-530.73515	773.17486	1477.45401	-446.90625	707.64729	1460.23897	-349.54640	799.67386	1469.82902	-337.67059	877.24004	1445.17434	-370.55187	873.89917	1397.36088	-300.32947	988.88740	1382.00715	-279.02643	973.82094	1329.00201	-311.60935	418.34839	1474.67736	-609.55989	403.08750	1399.66034	-626.85616	390.16807	1443.14695	-707.89402	312.24659	1381.72182	-776.28917	342.38114	1327.49877	-760.69297	1051.43667	1423.51973	-340.29360	1205.40831	1407.64412	-456.89728	1232.43525	1392.04625	-396.31251	347.87798	1414.32472	-844.56983	451.14864	1392.17843	-1022.01804	386.13042	1374.15774	-1040.30303	735.93667	968.31766	-488.35175	606.84851	956.71877	-594.53854	
